<svg xmlns="http://www.w3.org/2000/svg" viewBox="0 0 116 118"><defs><style>.a{fill:#000;}</style></defs><path class="a" d="M58,85a15.15,15.15,0,0,1-7.66-2,14.14,14.14,0,0,1-5.37-5.32A15.41,15.41,0,0,1,43,70V46.8a4.55,4.55,0,0,0-.65-2.38,4.94,4.94,0,0,0-1.73-1.73A4.54,4.54,0,0,0,38.24,42a4.34,4.34,0,0,0-2.34.65,5.12,5.12,0,0,0-1.7,1.73,4.54,4.54,0,0,0-.64,2.38V84.24H23.26V48a15.35,15.35,0,0,1,1.87-7.56A14.45,14.45,0,0,1,30.39,35,14.89,14.89,0,0,1,38.24,33,15.07,15.07,0,0,1,46.16,35a14.49,14.49,0,0,1,5.25,5.44A15.35,15.35,0,0,1,53.28,48V71.2a4.55,4.55,0,0,0,.65,2.38,5.09,5.09,0,0,0,1.69,1.73A4.39,4.39,0,0,0,58,76a4.55,4.55,0,0,0,2.38-.65,4.94,4.94,0,0,0,1.73-1.73,4.55,4.55,0,0,0,.65-2.38V48a15.35,15.35,0,0,1,1.87-7.56A14.38,14.38,0,0,1,69.88,35,15.1,15.1,0,0,1,77.76,33,14.86,14.86,0,0,1,85.65,35a14.57,14.57,0,0,1,5.22,5.44A15.35,15.35,0,0,1,92.74,48V84.24H82.44V46.8a4.72,4.72,0,0,0-2.3-4.11,4.66,4.66,0,0,0-4.75,0,4.94,4.94,0,0,0-1.73,1.73A4.55,4.55,0,0,0,73,46.8V70a15.13,15.13,0,0,1-2,7.78,14.47,14.47,0,0,1-5.36,5.32A15.18,15.18,0,0,1,58,85Z"/><path class="a" d="M58,115.58A56.58,56.58,0,1,1,114.58,59,56.64,56.64,0,0,1,58,115.58ZM58,8.64A50.36,50.36,0,1,0,108.36,59,50.42,50.42,0,0,0,58,8.64Z"/></svg>